<svg width="225" height="178" viewBox="0 0 225 178" fill="none" xmlns="http://www.w3.org/2000/svg">
<g clip-path="url(#clip0_223_3505)">
<path d="M34.8539 129.756L20.5954 124.765C19.0257 116.975 19.3777 108.918 21.6208 101.295C27.03 114.343 43.9007 117.991 53.268 128.551C56.1644 131.867 58.2788 135.794 59.4546 140.04C60.6304 144.286 60.8375 148.743 60.0604 153.08L62.7906 163.459C55.7368 162.648 48.9423 160.315 42.8751 156.62C36.808 152.925 31.6124 147.957 27.6464 142.056C25.4542 138.724 23.6895 135.129 22.394 131.355C28.5489 130.917 34.8539 129.756 34.8539 129.756Z" fill="#F2F2F2"/>
<path d="M51.2239 98.5955L41.2668 87.2169C43.7292 79.6621 47.995 72.8238 53.6938 67.2956C51.9894 81.3202 64.8804 92.8183 67.8433 106.631C68.7344 110.946 68.6449 115.407 67.5815 119.683C66.518 123.959 64.5078 127.94 61.6999 131.332L58.9757 141.711C53.2347 137.526 48.4675 132.143 45.0027 125.934C41.5379 119.725 39.4578 112.837 38.9057 105.745C38.6353 101.764 38.8665 97.7636 39.5937 93.8398C45.1656 96.4956 51.2239 98.5955 51.2239 98.5955Z" fill="#F2F2F2"/>
<path d="M134.416 135.069H62.4233C60.3079 135.069 58.5879 135.496 58.5879 136.023V164.236H138.261V136.023C138.261 135.496 136.541 135.069 134.416 135.069Z" fill="#F2F2F2"/>
<path d="M222.77 164.504L0.353695 164.596C0.25989 164.596 0.169928 164.558 0.103598 164.492C0.0372677 164.425 0 164.335 0 164.241C0 164.147 0.0372677 164.057 0.103598 163.991C0.169928 163.924 0.25989 163.887 0.353695 163.887L222.77 163.795C222.864 163.796 222.953 163.833 223.02 163.9C223.086 163.966 223.123 164.056 223.123 164.15C223.123 164.244 223.086 164.334 223.02 164.4C222.953 164.466 222.864 164.504 222.77 164.504V164.504Z" fill="#CACACA"/>
<path d="M80.5841 162.518L79.9113 168.01L100.731 173.223L101.724 165.118L80.5841 162.518Z" fill="#9E616A"/>
<path d="M84.5574 161.188L84.0053 170.025L80.2538 169.564L73.4826 177.198C73.1482 177.575 72.7023 177.835 72.2099 177.94C71.7176 178.045 71.2045 177.99 70.7457 177.782C70.2869 177.574 69.9064 177.225 69.6597 176.786C69.413 176.346 69.313 175.839 69.3744 175.338L70.6539 164.894L74.5852 163.55L70.9605 162.39L71.4429 158.452L84.5574 161.188Z" fill="#2F2E41"/>
<path d="M141.407 165.222L146.765 166.559L154.466 146.49L146.558 144.515L141.407 165.222Z" fill="#9E616A"/>
<path d="M155.083 174.072L148.346 166.409L149.261 162.733L148.308 162.554H148.302L142.349 161.441L140.572 161.108L136.265 173.816L140.109 174.778L141.698 171.313L142.364 174.495L142.551 175.385L152.743 177.929C153.231 178.051 153.745 178.014 154.211 177.822C154.676 177.63 155.068 177.295 155.329 176.864C155.591 176.433 155.708 175.93 155.664 175.427C155.619 174.925 155.416 174.45 155.083 174.072V174.072Z" fill="#2F2E41"/>
<path d="M96.4486 163.135L98.3913 162.828C96.306 165.004 94.3038 166.441 92.4027 166.888L93.3236 163.626L96.4486 163.135Z" fill="#2F2E41"/>
<path d="M153.197 153.34C151.358 157.459 150.033 160.096 150.033 160.096L149.377 159.751L147.648 158.843L143.531 156.679L142.824 156.307L143.026 152.373L143.923 134.974L144.303 127.641L128.61 135.95L110.042 145.783C109.281 147.111 108.526 148.402 107.775 149.658L95.1594 140.989L107.962 122.271L115.424 118.777L113.814 118.465C114.226 117.869 114.691 117.312 115.204 116.801L115.769 116.483C115.769 116.483 151.275 96.8875 161.491 106.935C162.372 107.834 163.033 108.925 163.422 110.123C166.924 120.2 158.176 142.197 153.197 153.34Z" fill="#2F2E41"/>
<path d="M145.385 171.772C144.62 172.917 143.581 173.853 142.364 174.495C141.332 175.06 140.24 175.506 139.108 175.825C124.053 180.233 91.1076 171.474 91.1076 171.474L92.4027 166.888L93.3236 163.626L96.4485 163.135L98.3913 162.828L121.627 159.176L115.225 154.777L107.775 149.658L95.1594 140.989L80.0395 134.176C62.5135 120.188 77.1878 104.504 77.1878 104.504L86.9964 97.5392L90.1808 95.2773L109.745 105.307L115.424 118.777L117.171 122.917L128.61 135.95L143.026 152.373L143.139 152.501C143.556 152.818 143.948 153.166 144.312 153.542C144.446 153.673 144.586 153.819 144.728 153.977C146.024 155.381 147.018 157.038 147.648 158.843C148.058 160.034 148.28 161.281 148.308 162.539C148.309 162.542 148.31 162.544 148.31 162.547C148.31 162.55 148.309 162.552 148.308 162.554C148.373 165.176 147.621 168.269 145.385 171.772Z" fill="#2F2E41"/>
<path d="M70.482 111.124C69.7018 110.888 69.3048 110.6 69.2322 110.22C69.1258 109.661 69.7527 109.163 70.4786 108.586C70.9848 108.184 72.3203 107.484 71.8321 107.269C64.4303 104.004 82.4255 57.6468 87.6471 52.3792C88.708 51.3089 88.5816 49.1361 89.9956 47.2029C93.858 41.9235 97.2467 40.9669 103.997 39.0618C104.545 38.9071 105.116 38.7451 105.71 38.5758C106.478 38.3561 105.668 40.543 106.069 39.0768C106.514 37.4473 106.974 35.7621 108.08 34.9562L108.152 34.9037L108.24 34.9094C110.286 35.045 116.965 36.1683 120.39 38.5914L120.438 38.6253L120.465 38.6763C121.097 39.8565 120.65 41.6372 120.218 43.3591C119.863 44.7728 120.717 42.5362 121.056 43.2628C123.652 48.8168 128.116 50.0742 128.161 50.0869L128.383 50.1469L128.339 50.3726C129.506 56.4345 121.502 75.2151 119.772 87.8615C118.014 100.71 128.035 115.18 113.309 112.748C113.343 112.859 118.744 123.969 118.656 124.057C117.317 125.401 73.4226 112.013 70.482 111.124Z" fill="#E6E6E6"/>
<path d="M167.914 42.9632C168.021 43.5706 167.993 44.194 167.833 44.7895C167.673 45.3849 167.384 45.938 166.988 46.4097C166.591 46.8814 166.096 47.2602 165.538 47.5195C164.98 47.7789 164.371 47.9124 163.756 47.9106L158.811 62.0586L154.1 55.8621L159.517 43.3769C159.589 42.3412 160.037 41.3676 160.777 40.6408C161.517 39.914 162.497 39.4843 163.532 39.4333C164.567 39.3824 165.585 39.7135 166.393 40.3641C167.2 41.0147 167.742 41.9395 167.914 42.9632Z" fill="#9E616A"/>
<path d="M146.155 82.3895L137.193 80.4479C121.028 75.3196 115.485 68.9907 113.678 64.5833C111.75 59.8807 113.507 56.4388 113.583 56.295L113.629 56.233L119.427 50.58C120.163 49.862 121.043 49.3091 122.009 48.9578C122.975 48.6065 124.005 48.465 125.029 48.5426C126.054 48.6201 127.05 48.915 127.953 49.4077C128.855 49.9004 129.642 50.5796 130.263 51.4003L142.036 66.9754L147.488 59.5753L150.132 57.4554L151.558 53.4495L157.029 47.4871L163.362 50.4234L160.978 64.8411L157.787 66.7958L157.637 68.9184L157.584 68.9804L146.155 82.3895Z" fill="#E6E6E6"/>
<path d="M101.253 127.572C101.209 127.572 101.165 127.571 101.12 127.569C100.599 127.55 100.091 127.405 99.638 127.147C99.1851 126.889 98.8011 126.525 98.5187 126.087C96.4036 122.919 93.8079 120.102 90.8254 117.737C89.0199 116.291 87.1331 114.947 85.3087 113.647C80.6018 110.293 76.1691 107.135 73.7084 102.771C68.3436 93.256 74.6615 80.0023 83.6872 74.0585C93.8109 67.3922 107.127 66.3465 120.009 66.2095C121.347 66.1953 122.687 66.1883 124.027 66.1883C147.238 66.1972 170.399 68.3191 193.226 72.5278C200.816 73.9309 208.762 75.6497 215.146 79.821C221.493 83.9676 225.351 90.4976 224.975 96.4573C224.425 105.158 215.22 111.658 206.838 113.358C198.848 114.977 190.549 113.883 181.762 112.724C179.822 112.469 177.816 112.204 175.833 111.975C154.277 109.478 113.783 117.173 112.07 117.501L110.37 117.827L103.776 126.33C103.479 126.718 103.097 127.032 102.659 127.247C102.222 127.462 101.741 127.573 101.253 127.572V127.572Z" fill="#487BFF"/>
<path d="M197.243 85.1288H106.134C105.609 85.1282 105.106 84.9186 104.734 84.5462C104.363 84.1738 104.155 83.669 104.155 83.1427C104.155 82.6163 104.363 82.1115 104.734 81.7391C105.106 81.3667 105.609 81.1572 106.134 81.1566H197.243C197.769 81.1572 198.272 81.3667 198.643 81.7391C199.015 82.1115 199.223 82.6163 199.223 83.1427C199.223 83.669 199.015 84.1738 198.643 84.5462C198.272 84.9186 197.769 85.1282 197.243 85.1288Z" fill="white"/>
<path d="M197.243 97.3199H106.134C105.874 97.3204 105.616 97.2694 105.375 97.1699C105.135 97.0704 104.916 96.9244 104.731 96.7401C104.547 96.5559 104.401 96.337 104.301 96.0961C104.201 95.8551 104.149 95.5968 104.149 95.3359C104.149 95.0749 104.2 94.8165 104.299 94.5754C104.398 94.3342 104.544 94.115 104.728 93.9304C104.912 93.7458 105.131 93.5993 105.371 93.4993C105.612 93.3993 105.87 93.3478 106.13 93.3477H197.243C197.769 93.3483 198.272 93.5578 198.643 93.9302C199.015 94.3026 199.223 94.8075 199.223 95.3338C199.223 95.8601 199.015 96.3649 198.643 96.7373C198.272 97.1097 197.769 97.3193 197.243 97.3199V97.3199Z" fill="white"/>
<path d="M116.752 109.511H106.134C105.609 109.51 105.106 109.301 104.734 108.928C104.363 108.556 104.155 108.051 104.155 107.525C104.155 106.998 104.363 106.493 104.734 106.121C105.106 105.749 105.609 105.539 106.134 105.538H116.752C117.277 105.539 117.781 105.749 118.152 106.121C118.523 106.493 118.732 106.998 118.732 107.525C118.732 108.051 118.523 108.556 118.152 108.928C117.781 109.301 117.277 109.51 116.752 109.511Z" fill="white"/>
<path d="M168.081 43.517C175.575 43.517 181.651 37.4299 181.651 29.921C181.651 22.4121 175.575 16.325 168.081 16.325C160.586 16.325 154.511 22.4121 154.511 29.921C154.511 37.4299 160.586 43.517 168.081 43.517Z" fill="white"/>
<path d="M168.081 43.683C165.364 43.683 162.709 42.8759 160.45 41.3637C158.191 39.8516 156.431 37.7022 155.391 35.1876C154.351 32.6729 154.079 29.9058 154.609 27.2363C155.139 24.5667 156.447 22.1145 158.368 20.1899C160.289 18.2652 162.737 16.9545 165.401 16.4235C168.066 15.8925 170.828 16.165 173.337 17.2066C175.847 18.2482 177.992 20.0121 179.502 22.2753C181.011 24.5384 181.817 27.1991 181.817 29.921C181.813 33.5696 180.364 37.0676 177.789 39.6476C175.214 42.2276 171.723 43.6789 168.081 43.683V43.683Z" fill="#3F3D56"/>
<path d="M167.065 35.3547C167.036 35.3547 167.007 35.3538 166.978 35.3524C166.723 35.34 166.473 35.2724 166.246 35.1542C166.019 35.036 165.82 34.87 165.663 34.6676L163.395 31.7465C163.252 31.5621 163.146 31.3513 163.084 31.126C163.022 30.9008 163.006 30.6655 163.034 30.4337C163.063 30.2018 163.138 29.978 163.253 29.7749C163.368 29.5718 163.522 29.3934 163.706 29.25L163.788 29.1864C163.972 29.0428 164.182 28.937 164.407 28.875C164.632 28.813 164.867 28.7959 165.098 28.8249C165.33 28.8539 165.553 28.9283 165.756 29.0438C165.959 29.1594 166.137 29.3139 166.28 29.4984C166.395 29.6457 166.539 29.7666 166.705 29.8526C166.87 29.9387 167.052 29.9879 167.239 29.997C167.425 30.0061 167.611 29.9748 167.784 29.9053C167.957 29.8357 168.113 29.7296 168.241 29.5941L172.846 24.7237C173.17 24.3816 173.616 24.1824 174.087 24.1695C174.557 24.1567 175.014 24.3314 175.356 24.6553L175.431 24.7274C175.601 24.8881 175.737 25.0806 175.832 25.2939C175.927 25.5073 175.979 25.7373 175.985 25.9708C175.991 26.2043 175.952 26.4368 175.868 26.655C175.785 26.8732 175.659 27.0727 175.499 27.2423L168.353 34.7991C168.188 34.9746 167.988 35.1144 167.766 35.21C167.545 35.3055 167.306 35.3548 167.065 35.3547V35.3547Z" fill="white"/>
<path d="M98.2938 100.368C97.6866 100.267 97.1087 100.035 96.601 99.6859C96.0933 99.3373 95.6681 98.8814 95.3552 98.3503C95.0424 97.8192 94.8496 97.2259 94.7904 96.6121C94.7312 95.9982 94.807 95.3789 95.0126 94.7976L83.3274 85.4362L90.7237 83.0353L100.686 92.2932C101.638 92.7039 102.406 93.4501 102.846 94.3905C103.285 95.3308 103.365 96.3999 103.07 97.3953C102.775 98.3906 102.126 99.243 101.246 99.7909C100.365 100.339 99.3151 100.544 98.2938 100.368V100.368Z" fill="#9E616A"/>
<path d="M68.3748 66.7358L73.1724 58.907C83.3575 45.3249 91.154 42.1821 95.9032 41.934C100.971 41.6692 103.63 44.4706 103.74 44.5901L103.783 44.6541L107.186 52.0077C107.618 52.9417 107.847 53.9572 107.858 54.9867C107.868 56.0162 107.661 57.0362 107.248 57.9791C106.836 58.9221 106.228 59.7664 105.465 60.4561C104.702 61.1458 103.801 61.6652 102.823 61.9798L84.2551 67.949L89.4176 75.5543L90.5379 78.7564L93.8377 81.432L97.6402 88.5788L92.7766 93.5933L79.9893 86.5622L79.2056 82.8984L77.2566 82.0529L77.2156 81.9828L68.3748 66.7358Z" fill="#E6E6E6"/>
<path d="M134.44 35.7222L134.452 35.7232C135.094 35.7788 135.731 35.5766 136.224 35.1612C136.717 34.7458 137.025 34.1511 137.081 33.5081L138.256 19.9786C138.469 17.5548 138.193 15.1129 137.445 12.7981C135.979 8.28021 132.829 4.5034 128.653 2.25476C126.496 1.09678 124.128 0.388285 121.691 0.171974C111.72 -0.712972 108.092 1.39057 102.037 16.6584C95.9826 31.9261 100.861 30.2085 100.861 30.2085C100.832 30.5346 100.869 30.8631 100.97 31.1745C101.168 31.782 101.592 32.2894 102.154 32.5908C102.443 32.7451 102.759 32.8397 103.085 32.869C114.886 35.7909 126.793 38.8699 134.442 35.7223L134.44 35.7222Z" fill="#2F2E41"/>
<path d="M112.362 13.0463C110.898 15.2483 110.118 17.8357 110.12 20.4816C110.123 23.1276 110.908 25.7134 112.377 27.9126C113.845 30.1118 115.931 31.8256 118.371 32.8377C120.811 33.8497 123.496 34.1146 126.086 33.5989C127.801 33.263 129.432 32.5896 130.885 31.6177C132.338 30.6458 133.584 29.3946 134.551 27.9366C136.012 25.7354 136.79 23.15 136.787 20.5064C136.784 17.8628 135.999 15.2793 134.532 13.0818C133.066 10.8843 130.982 9.17103 128.545 8.1581C126.108 7.14518 123.426 6.87792 120.838 7.39002C119.121 7.72393 117.489 8.3959 116.034 9.36695C114.579 10.338 113.331 11.5888 112.362 13.0468L112.362 13.0463Z" fill="#9E616A"/>
<path d="M142.443 21.453C142.611 19.5361 142.393 17.6048 141.802 15.7741C141.638 11.287 140.311 7.23071 134.849 7.43764C133.154 6.52841 131.294 5.97004 129.379 5.79574L126.678 5.54657C126.647 5.54375 126.617 5.54102 126.587 5.5384C122.807 5.21126 119.052 6.40196 116.148 8.84856C113.245 11.2952 111.43 14.7972 111.103 18.5844L111.08 18.8554L116.795 19.3769L119.219 14.0897L119.134 19.5914L122.086 19.8619L123.308 17.1944L123.266 19.9683C127.672 23.8043 134.315 23.9628 142.417 21.7242L142.443 21.453Z" fill="#2F2E41"/>
<path d="M124.257 34.405C124.309 34.8501 124.235 35.3009 124.043 35.7059C123.947 35.9134 123.822 36.1062 123.672 36.2789C123.544 36.426 123.398 36.5574 123.239 36.6703C122.768 37.0035 122.194 37.1577 121.62 37.1051C121.584 37.1017 121.549 37.0975 121.513 37.0927C121.477 37.0879 121.442 37.0823 121.406 37.0758C121.37 37.0697 121.335 37.0625 121.299 37.0544C121.264 37.0462 121.229 37.0374 121.193 37.0279L119.196 36.4814L116.92 30.2548L116.444 35.735L107.363 33.2666L109.382 10.011L124.843 11.4336L124.422 11.8452C123.023 13.2276 122.032 14.9698 121.558 16.8802C121.087 18.8159 120.951 20.8182 121.156 22.7999C121.348 24.8039 121.732 26.7848 122.302 28.7153C122.798 30.4248 123.392 32.1042 124.081 33.7452C124.17 33.9558 124.23 34.1779 124.257 34.405V34.405Z" fill="#2F2E41"/>
</g>
<defs>
<clipPath id="clip0_223_3505">
<rect width="225" height="178" fill="white"/>
</clipPath>
</defs>
</svg>
