<svg xmlns="http://www.w3.org/2000/svg" fill="none" viewBox="103.37 184.56 176.83 238.44">
<path d="M191.782 366.028C240.613 366.028 280.199 325.477 280.199 275.455C280.199 225.433 240.613 184.882 191.782 184.882C142.951 184.882 103.366 225.433 103.366 275.455C103.366 325.477 142.951 366.028 191.782 366.028Z" fill="#487BFF"/>
<path d="M191.108 423L129.812 340.057L252.996 341.16L191.108 423Z" fill="#487BFF"/>
<path d="M192.912 346.602C231.275 346.602 262.373 314.748 262.373 275.455C262.373 236.161 231.275 204.308 192.912 204.308C154.55 204.308 123.451 236.161 123.451 275.455C123.451 314.748 154.55 346.602 192.912 346.602Z" fill="white"/>
<path d="M186.588 195.821L146.563 215.101C143.2 216.723 140.785 219.823 140.028 223.478L131.07 267.05C130.232 271.134 131.571 275.364 134.624 278.217L160.706 302.61C162.921 304.689 165.846 305.837 168.89 305.837H215.978C219.122 305.837 222.138 304.598 224.38 302.401L250.089 277.096C253.051 274.179 254.29 269.94 253.36 265.893L243.646 223.305C242.835 219.75 240.447 216.76 237.166 215.174L196.995 195.821C193.714 194.235 189.887 194.235 186.606 195.821H186.588Z" fill="white"/>
<path d="M191.782 371.278L254.007 326.056L230.24 252.885H153.325L129.557 326.056L191.782 371.278Z" fill="white"/>
<path d="M224.389 341.889L210.246 367.513C209.626 368.644 208.441 369.355 207.147 369.382L177.894 369.947C176.6 369.975 175.397 369.309 174.732 368.197L159.613 343.138C158.947 342.035 158.92 340.65 159.54 339.519L173.683 313.896C174.303 312.765 175.488 312.054 176.782 312.027L206.035 311.462C207.329 311.434 208.532 312.1 209.198 313.212L224.317 338.271C224.982 339.374 225.009 340.759 224.389 341.889Z" fill="white"/>
<path d="M201.934 236.577L191.782 254.799L181.63 236.577L191.782 218.355L201.934 236.577Z" fill="white"/>
<path d="M235.189 254.699L228.099 270.378L196.913 270.396L194.999 244.89L218.657 235.191L235.189 254.699Z" fill="white"/>
<path d="M148.139 254.699L155.229 270.378L186.415 270.396L188.328 244.89L164.671 235.191L148.139 254.699Z" fill="white"/>
<path d="M248.243 280.672L223.795 256.217L199.346 280.672L223.795 305.127L248.243 280.672Z" fill="white"/>
<path d="M184.827 280.675L160.378 256.22L135.929 280.675L160.378 305.13L184.827 280.675Z" fill="white"/>
<path d="M141.86 275.993L183.325 247.251C184.31 246.568 185.476 246.203 186.67 246.203H196.95C198.098 246.203 199.228 246.54 200.194 247.178L243.728 275.993C246.607 277.898 247.227 281.854 245.076 284.552L222.439 312.938C221.327 314.333 219.632 315.153 217.846 315.153H167.423C165.618 315.153 163.905 314.324 162.793 312.893L140.584 284.443C138.507 281.781 139.099 277.925 141.869 276.002L141.86 275.993Z" fill="white"/>
<path d="M200.786 286.075L193.423 291.416C192.448 292.127 191.117 292.127 190.142 291.416L182.779 286.066C181.457 285.099 181.238 283.212 182.314 281.982L183.863 280.195C184.392 279.584 185.166 279.229 185.977 279.229H197.597C198.408 279.229 199.173 279.584 199.702 280.204L201.251 282C202.326 283.24 202.108 285.127 200.777 286.084L200.786 286.075Z" fill="white" stroke="#231F20" stroke-miterlimit="10"/>
<path d="M210.802 208.082L239.818 237.634C241.841 239.695 245.35 238.263 245.35 235.374V187.79C245.35 185.256 242.57 183.716 240.42 185.047L211.403 203.077C209.644 204.171 209.353 206.605 210.802 208.082V208.082Z" fill="white"/>
<path d="M172.663 208.082L143.646 237.634C141.623 239.695 138.115 238.263 138.115 235.374V187.79C138.115 185.256 140.894 183.716 143.045 185.047L172.061 203.077C173.82 204.171 174.112 206.605 172.663 208.082V208.082Z" fill="white"/>
<path d="M177.693 265.884H163.331L159.421 258.345H174.622L177.693 265.884Z" fill="white"/>
<path d="M205.634 265.884H220.006L223.906 258.345H208.706L205.634 265.884Z" fill="white"/>
<path d="M186.779 199.714L148.932 217.945C145.569 219.567 143.154 222.667 142.398 226.322L133.932 267.488C133.093 271.572 134.433 275.801 137.486 278.655L162.082 301.662C164.297 303.741 167.222 304.889 170.266 304.889H214.912C218.056 304.889 221.072 303.65 223.314 301.453L247.564 277.588C250.526 274.671 251.765 270.432 250.836 266.385L241.659 226.158C240.848 222.603 238.46 219.613 235.179 218.027L197.186 199.723C193.906 198.137 190.078 198.137 186.797 199.723L186.779 199.714Z" fill="#487BFF"/>
<path d="M191.974 367.513L251.519 324.242L228.773 254.216H155.175L132.428 324.242L191.974 367.513Z" fill="#487BFF"/>
<path d="M223.715 341.461L210.273 365.827C209.653 366.957 208.469 367.668 207.175 367.696L179.361 368.233C178.067 368.261 176.864 367.595 176.199 366.483L161.827 342.655C161.162 341.552 161.135 340.167 161.754 339.036L175.196 314.67C175.816 313.54 177.001 312.829 178.295 312.802L206.108 312.264C207.402 312.236 208.605 312.902 209.271 314.014L223.642 337.842C224.307 338.945 224.335 340.331 223.715 341.461Z" fill="white"/>
<path d="M201.688 238.61L191.974 256.048L182.259 238.61L191.974 221.172L201.688 238.61Z" fill="white"/>
<path d="M233.512 255.957L226.732 270.952L196.877 270.97L195.054 246.568L217.691 237.279L233.512 255.957Z" fill="white"/>
<path d="M150.208 255.957L156.988 270.952L186.843 270.97L188.666 246.568L166.028 237.279L150.208 255.957Z" fill="white"/>
<path d="M246.012 280.8L222.614 257.396L199.216 280.8L222.614 304.204L246.012 280.8Z" fill="white"/>
<path d="M185.322 280.803L161.924 257.399L138.525 280.803L161.924 304.208L185.322 280.803Z" fill="white"/>
<path d="M144.202 276.321L183.881 248.81C184.82 248.154 185.941 247.807 187.08 247.807H196.913C198.016 247.807 199.091 248.136 200.012 248.737L241.668 276.312C244.42 278.135 245.022 281.927 242.962 284.507L221.3 311.671C220.234 313.011 218.621 313.786 216.907 313.786H168.653C166.921 313.786 165.29 312.993 164.224 311.626L142.972 284.397C140.985 281.854 141.55 278.162 144.202 276.321V276.321Z" fill="white"/>
<path d="M200.586 285.974L193.541 291.088C192.603 291.772 191.336 291.763 190.397 291.088L183.353 285.965C182.086 285.045 181.876 283.24 182.906 282.055L184.392 280.341C184.902 279.758 185.64 279.42 186.415 279.42H197.533C198.307 279.42 199.046 279.767 199.547 280.35L201.032 282.064C202.053 283.249 201.852 285.054 200.586 285.974V285.974Z" fill="#487BFF"/>
<path d="M210.291 211.464L237.695 239.375C239.718 241.436 243.226 240.004 243.226 237.115V192.166C243.226 189.632 240.447 188.091 238.296 189.422L210.893 206.45C209.134 207.544 208.842 209.978 210.291 211.454V211.464Z" fill="#487BFF"/>
<path d="M173.556 211.464L146.152 239.375C144.129 241.436 140.621 240.004 140.621 237.115V192.166C140.621 189.632 143.4 188.091 145.551 189.422L172.954 206.45C174.713 207.544 175.005 209.978 173.556 211.454V211.464Z" fill="#487BFF"/>
<path d="M179.407 266.649H165.655L161.918 259.439H176.463L179.407 266.649Z" fill="#487BFF"/>
<path d="M204.422 266.786H218.165L221.902 259.576H207.357L204.422 266.786Z" fill="#487BFF"/>
<path d="M219.149 351.397L199.346 370.941L216.935 371.351L219.149 351.397Z" fill="#487BFF"/>
<path d="M164.488 351.397L184.291 370.941L166.712 371.351L164.488 351.397Z" fill="#487BFF"/>
<path d="M198.508 380.913H185.713L182.469 369.437H200.987L198.508 380.913Z" fill="#487BFF"/>
</svg>