<svg width="283" height="194" viewBox="0 0 283 194" fill="none" xmlns="http://www.w3.org/2000/svg">
<g clip-path="url(#clip0_222_3472)">
<path opacity="0.1" d="M282.693 81.4015C280.971 88.3929 272.131 91.8974 267.178 97.113C257.845 106.943 261.479 121.299 267.401 132.796C269.383 136.645 271.633 140.721 270.793 144.849C269.77 149.898 264.331 153.589 258.62 155.546C248.214 159.11 235.752 158.26 226.186 153.33C217.921 149.071 211.999 142.154 203.593 138.076C189.522 131.273 171.614 133.854 156.335 138.53C145.527 141.846 133.709 146.16 122.969 142.698C115.412 140.259 110.187 134.323 107.34 128.044C105.967 125.007 104.969 121.718 102.345 119.312C100.784 117.879 98.7476 116.863 96.6639 116.009C77.6161 108.185 53.5535 112.375 35.0631 103.697C22.571 97.8382 14.5708 86.786 11.0303 75.2594C7.48982 63.7328 7.9011 51.6474 8.80048 39.7756C9.4397 31.3312 10.5868 22.3354 17.093 15.8233C23.9758 8.93616 35.7866 6.38546 46.4651 7.6844C57.1436 8.98335 66.8187 13.6601 75.3342 19.1539C85.9879 26.0236 95.8439 34.5748 108.908 37.3565C117.805 39.2515 127.163 38.2134 136.34 37.8532C151.682 37.2547 167.028 38.5983 182.283 40.0488C189.716 40.7616 197.173 41.5092 204.542 42.592C206.193 42.8338 207.845 43.0946 209.497 43.3744C210.324 43.516 211.152 43.6625 211.974 43.814C212.619 43.9307 213.26 44.0624 213.902 44.1791C214.914 44.3761 215.924 44.5831 216.93 44.8C219.818 45.4209 222.68 46.1238 225.512 46.9235C235.358 49.7077 243.252 54.7644 252.55 58.2961C258.61 60.5985 265.218 61.2343 270.956 64.165C278.018 67.7638 284.504 74.0499 282.693 81.4015Z" fill="#093C6B"/>
<path d="M232.883 118.656C246.872 118.656 258.212 107.289 258.212 93.2658C258.212 79.2432 246.872 67.8755 232.883 67.8755C218.894 67.8755 207.554 79.2432 207.554 93.2658C207.554 107.289 218.894 118.656 232.883 118.656Z" fill="#096B13"/>
<path d="M205.946 111.719C219.935 111.719 231.275 100.352 231.275 86.329C231.275 72.3063 219.935 60.9387 205.946 60.9387C191.958 60.9387 180.618 72.3063 180.618 86.329C180.618 100.352 191.958 111.719 205.946 111.719Z" fill="#096B13"/>
<path d="M176.294 111.968C190.283 111.968 201.623 100.6 201.623 86.5774C201.623 72.5547 190.283 61.1871 176.294 61.1871C162.306 61.1871 150.966 72.5547 150.966 86.5774C150.966 100.6 162.306 111.968 176.294 111.968Z" fill="#096B13"/>
<path d="M166.656 118.656C180.645 118.656 191.985 107.289 191.985 93.2658C191.985 79.2432 180.645 67.8755 166.656 67.8755C152.668 67.8755 141.328 79.2432 141.328 93.2658C141.328 107.289 152.668 118.656 166.656 118.656Z" fill="#096B13"/>
<path d="M150.346 120.886C164.335 120.886 175.675 109.519 175.675 95.4962C175.675 81.4735 164.335 70.1059 150.346 70.1059C136.358 70.1059 125.018 81.4735 125.018 95.4962C125.018 109.519 136.358 120.886 150.346 120.886Z" fill="#096B13"/>
<path d="M143.674 100.821C157.663 100.821 169.003 89.4535 169.003 75.4308C169.003 61.4081 157.663 50.0405 143.674 50.0405C129.686 50.0405 118.346 61.4081 118.346 75.4308C118.346 89.4535 129.686 100.821 143.674 100.821Z" fill="#096B13"/>
<path d="M151.087 77.5344C165.076 77.5344 176.416 66.1668 176.416 52.1441C176.416 38.1215 165.076 26.7538 151.087 26.7538C137.099 26.7538 125.759 38.1215 125.759 52.1441C125.759 66.1668 137.099 77.5344 151.087 77.5344Z" fill="#096B13"/>
<path d="M165.172 77.5344C179.161 77.5344 190.501 66.1668 190.501 52.1441C190.501 38.1215 179.161 26.7538 165.172 26.7538C151.184 26.7538 139.844 38.1215 139.844 52.1441C139.844 66.1668 151.184 77.5344 165.172 77.5344Z" fill="#096B13"/>
<path d="M173.329 67.1305C187.317 67.1305 198.657 55.7628 198.657 41.7401C198.657 27.7175 187.317 16.3498 173.329 16.3498C159.34 16.3498 148 27.7175 148 41.7401C148 55.7628 159.34 67.1305 173.329 67.1305Z" fill="#096B13"/>
<path d="M194.086 78.5254C208.075 78.5254 219.415 67.1578 219.415 53.1351C219.415 39.1124 208.075 27.7448 194.086 27.7448C180.097 27.7448 168.757 39.1124 168.757 53.1351C168.757 67.1578 180.097 78.5254 194.086 78.5254Z" fill="#096B13"/>
<path d="M242.521 100.821C256.509 100.821 267.849 89.4535 267.849 75.4308C267.849 61.4081 256.509 50.0405 242.521 50.0405C228.532 50.0405 217.192 61.4081 217.192 75.4308C217.192 89.4535 228.532 100.821 242.521 100.821Z" fill="#096B13"/>
<path d="M227.94 88.1868C241.929 88.1868 253.269 76.8192 253.269 62.7965C253.269 48.7738 241.929 37.4062 227.94 37.4062C213.951 37.4062 202.611 48.7738 202.611 62.7965C202.611 76.8192 213.951 88.1868 227.94 88.1868Z" fill="#096B13"/>
<path d="M218.55 75.5525C232.539 75.5525 243.879 64.1849 243.879 50.1622C243.879 36.1395 232.539 24.7719 218.55 24.7719C204.561 24.7719 193.221 36.1395 193.221 50.1622C193.221 64.1849 204.561 75.5525 218.55 75.5525Z" fill="#096B13"/>
<path d="M200.758 56.4781C214.747 56.4781 226.087 45.1105 226.087 31.0878C226.087 17.0651 214.747 5.69748 200.758 5.69748C186.77 5.69748 175.43 17.0651 175.43 31.0878C175.43 45.1105 186.77 56.4781 200.758 56.4781Z" fill="#096B13"/>
<path d="M233.871 77.5344C247.86 77.5344 259.2 66.1668 259.2 52.1441C259.2 38.1215 247.86 26.7538 233.871 26.7538C219.883 26.7538 208.543 38.1215 208.543 52.1441C208.543 66.1668 219.883 77.5344 233.871 77.5344Z" fill="#096B13"/>
<g opacity="0.1">
<path d="M232.883 118.656C246.872 118.656 258.212 107.289 258.212 93.2658C258.212 79.2432 246.872 67.8755 232.883 67.8755C218.894 67.8755 207.554 79.2432 207.554 93.2658C207.554 107.289 218.894 118.656 232.883 118.656Z" fill="black"/>
<path d="M205.946 111.719C219.935 111.719 231.275 100.352 231.275 86.329C231.275 72.3063 219.935 60.9387 205.946 60.9387C191.958 60.9387 180.618 72.3063 180.618 86.329C180.618 100.352 191.958 111.719 205.946 111.719Z" fill="black"/>
<path d="M176.294 111.968C190.283 111.968 201.623 100.6 201.623 86.5774C201.623 72.5547 190.283 61.1871 176.294 61.1871C162.306 61.1871 150.966 72.5547 150.966 86.5774C150.966 100.6 162.306 111.968 176.294 111.968Z" fill="black"/>
<path d="M166.656 118.656C180.645 118.656 191.985 107.289 191.985 93.2658C191.985 79.2432 180.645 67.8755 166.656 67.8755C152.668 67.8755 141.328 79.2432 141.328 93.2658C141.328 107.289 152.668 118.656 166.656 118.656Z" fill="black"/>
<path d="M150.346 120.886C164.335 120.886 175.675 109.519 175.675 95.4962C175.675 81.4735 164.335 70.1059 150.346 70.1059C136.358 70.1059 125.018 81.4735 125.018 95.4962C125.018 109.519 136.358 120.886 150.346 120.886Z" fill="black"/>
<path d="M143.674 100.821C157.663 100.821 169.003 89.4535 169.003 75.4308C169.003 61.4081 157.663 50.0405 143.674 50.0405C129.686 50.0405 118.346 61.4081 118.346 75.4308C118.346 89.4535 129.686 100.821 143.674 100.821Z" fill="black"/>
<path d="M151.087 77.5344C165.076 77.5344 176.416 66.1668 176.416 52.1441C176.416 38.1215 165.076 26.7538 151.087 26.7538C137.099 26.7538 125.759 38.1215 125.759 52.1441C125.759 66.1668 137.099 77.5344 151.087 77.5344Z" fill="black"/>
<path d="M165.172 77.5344C179.161 77.5344 190.501 66.1668 190.501 52.1441C190.501 38.1215 179.161 26.7538 165.172 26.7538C151.184 26.7538 139.844 38.1215 139.844 52.1441C139.844 66.1668 151.184 77.5344 165.172 77.5344Z" fill="black"/>
<path d="M173.329 67.1305C187.317 67.1305 198.657 55.7628 198.657 41.7401C198.657 27.7175 187.317 16.3498 173.329 16.3498C159.34 16.3498 148 27.7175 148 41.7401C148 55.7628 159.34 67.1305 173.329 67.1305Z" fill="black"/>
<path d="M194.086 78.5254C208.075 78.5254 219.415 67.1578 219.415 53.1351C219.415 39.1124 208.075 27.7448 194.086 27.7448C180.097 27.7448 168.757 39.1124 168.757 53.1351C168.757 67.1578 180.097 78.5254 194.086 78.5254Z" fill="black"/>
<path d="M242.521 100.821C256.509 100.821 267.849 89.4535 267.849 75.4308C267.849 61.4081 256.509 50.0405 242.521 50.0405C228.532 50.0405 217.192 61.4081 217.192 75.4308C217.192 89.4535 228.532 100.821 242.521 100.821Z" fill="black"/>
<path d="M227.94 88.1868C241.929 88.1868 253.269 76.8192 253.269 62.7965C253.269 48.7738 241.929 37.4062 227.94 37.4062C213.952 37.4062 202.612 48.7738 202.612 62.7965C202.612 76.8192 213.952 88.1868 227.94 88.1868Z" fill="black"/>
<path d="M218.55 75.5525C232.539 75.5525 243.879 64.1848 243.879 50.1622C243.879 36.1395 232.539 24.7719 218.55 24.7719C204.561 24.7719 193.221 36.1395 193.221 50.1622C193.221 64.1848 204.561 75.5525 218.55 75.5525Z" fill="black"/>
<path d="M200.758 56.4781C214.747 56.4781 226.087 45.1105 226.087 31.0878C226.087 17.0651 214.747 5.69748 200.758 5.69748C186.77 5.69748 175.43 17.0651 175.43 31.0878C175.43 45.1105 186.77 56.4781 200.758 56.4781Z" fill="black"/>
<path d="M233.872 77.5344C247.86 77.5344 259.2 66.1668 259.2 52.1441C259.2 38.1215 247.86 26.7538 233.872 26.7538C219.883 26.7538 208.543 38.1215 208.543 52.1441C208.543 66.1668 219.883 77.5344 233.872 77.5344Z" fill="black"/>
</g>
<path d="M220.373 137.76C220.373 137.76 235.859 124.714 228.198 106.136L220.537 103.26L212.225 128.914L220.373 137.76Z" fill="#67647E"/>
<path opacity="0.1" d="M221.199 102.376L223.032 103.064L214.871 128.25L221.991 135.98C221.402 136.568 221.035 136.876 221.035 136.876L212.884 128.029L221.199 102.376Z" fill="black"/>
<path opacity="0.1" d="M143.577 193.998C219.726 193.998 281.456 183.638 281.456 170.86C281.456 158.081 219.726 147.722 143.577 147.722C67.429 147.722 5.69852 158.081 5.69852 170.86C5.69852 183.638 67.429 193.998 143.577 193.998Z" fill="#0B6A70"/>
<path d="M249.703 135.023C249.703 135.023 244.666 140.073 247.511 147.566C250.355 155.059 242.637 167.517 242.637 167.517L242.885 167.477C253.229 165.647 258.37 153.787 252.617 144.975C250.467 141.704 248.71 137.86 249.703 135.023Z" fill="#096B13"/>
<path d="M249.703 135.023C249.703 135.023 246.859 141.213 249.703 146.262C252.548 151.311 250.199 165.48 242.635 167.517" stroke="#535461" stroke-miterlimit="10"/>
<path d="M258.675 155.446C258.675 155.446 252.927 154.53 252.404 159.693C251.881 164.857 241.349 165.572 241.349 165.572L241.547 165.704C250.241 171.416 258.551 169.347 257.297 161.752C256.834 158.928 256.871 156.092 258.675 155.446Z" fill="#096B13"/>
<path opacity="0.2" d="M258.675 155.446C258.675 155.446 252.927 154.53 252.404 159.693C251.881 164.857 241.349 165.572 241.349 165.572L241.547 165.704C250.241 171.416 258.551 169.347 257.297 161.752C256.834 158.928 256.871 156.092 258.675 155.446Z" fill="#F5F5F5"/>
<path d="M258.675 155.446C258.675 155.446 254.215 156.44 254.579 160.496C254.944 164.551 247.954 169.437 241.351 165.572" stroke="#535461" stroke-miterlimit="10"/>
<path d="M150.44 110.587L152.452 118.659C152.452 118.659 166.666 120.516 176.143 119.349C177.818 119.111 179.427 118.529 180.868 117.64C181.668 117.166 182.932 116.96 184.659 118.256C187.617 120.492 202.136 138.374 199.785 156.927C199.602 158.325 198.965 159.623 197.972 160.622C196.979 161.62 195.686 162.263 194.292 162.45V162.45C191.396 162.846 188.629 163.895 186.197 165.52L179.012 170.316L252.684 168.702L245.036 159.42C245.036 159.42 239.803 154.982 235.777 154.577C234.602 154.46 233.634 153.38 232.851 151.912C228.265 143.306 222.779 135.215 216.833 127.488C212.502 121.86 208.867 115.929 209.207 112.204C210.012 103.325 209.207 88.7978 209.207 88.7978L193.91 86.781C193.91 86.781 195.922 106.153 177.404 110.994C158.887 115.835 150.44 110.587 150.44 110.587Z" fill="#67647E"/>
<g opacity="0.1">
<path d="M162.92 114.22C162.92 114.22 171.374 119.466 189.894 114.623C208.414 109.78 206.4 90.4096 206.4 90.4096L209.311 90.7896C209.256 89.5478 209.214 88.8027 209.214 88.8027L193.918 86.786C193.918 86.786 195.929 106.158 177.412 110.999C158.894 115.84 150.438 110.597 150.438 110.597L152.45 118.669C152.45 118.669 157.881 119.379 164.268 119.645L162.92 114.22Z" fill="black"/>
<path d="M198.677 169.151C201.108 167.527 203.876 166.477 206.771 166.081V166.081C208.162 165.896 209.454 165.257 210.446 164.263C211.438 163.268 212.076 161.974 212.262 160.58C214.625 142.027 200.099 124.113 197.148 121.887C193.927 119.466 192.317 122.29 192.317 122.29C191.177 122.59 190.018 122.811 188.848 122.953C194.066 129.907 201.531 143.247 199.785 156.946C199.599 158.341 198.961 159.635 197.969 160.629C196.976 161.624 195.685 162.263 194.294 162.448V162.448C191.399 162.843 188.631 163.893 186.2 165.518L179.015 170.313L197.537 169.909L198.677 169.151Z" fill="black"/>
</g>
<path d="M162.769 149.741C162.769 149.741 161.23 144.506 163.056 140.651C163.833 139.04 164.067 137.219 163.723 135.463C163.55 134.63 163.301 133.814 162.98 133.027" stroke="#535461" stroke-width="2" stroke-miterlimit="10"/>
<path d="M164.129 130.59C164.129 131.231 162.97 133.094 162.97 133.094C162.97 133.094 161.818 131.231 161.818 130.59C161.818 130.282 161.94 129.986 162.157 129.768C162.375 129.55 162.67 129.428 162.977 129.428C163.285 129.428 163.58 129.55 163.797 129.768C164.015 129.986 164.137 130.282 164.137 130.59H164.129Z" fill="#096B13"/>
<path d="M166.047 134.144C165.7 134.683 163.718 135.614 163.718 135.614C163.718 135.614 163.755 133.421 164.102 132.882C164.182 132.749 164.289 132.634 164.415 132.543C164.54 132.452 164.683 132.387 164.835 132.352C164.986 132.318 165.143 132.314 165.295 132.341C165.448 132.368 165.594 132.425 165.724 132.51C165.854 132.595 165.966 132.705 166.053 132.833C166.14 132.962 166.201 133.107 166.231 133.26C166.261 133.413 166.26 133.57 166.229 133.722C166.197 133.874 166.135 134.019 166.047 134.147V134.144Z" fill="#096B13"/>
<path d="M165.963 140.214C165.39 140.502 163.213 140.304 163.213 140.304C163.213 140.304 164.347 138.428 164.92 138.14C165.056 138.072 165.204 138.031 165.356 138.019C165.507 138.008 165.66 138.027 165.805 138.075C165.949 138.123 166.083 138.199 166.198 138.298C166.314 138.398 166.408 138.519 166.477 138.656C166.545 138.792 166.586 138.941 166.598 139.093C166.609 139.245 166.59 139.398 166.542 139.543C166.494 139.688 166.419 139.822 166.319 139.938C166.22 140.053 166.099 140.148 165.963 140.217V140.214Z" fill="#096B13"/>
<path d="M164.868 144.801C164.352 145.184 162.172 145.355 162.172 145.355C162.172 145.355 162.975 143.314 163.49 142.934C163.738 142.765 164.041 142.7 164.336 142.75C164.631 142.801 164.895 142.963 165.073 143.205C165.251 143.446 165.329 143.747 165.291 144.045C165.252 144.342 165.101 144.613 164.868 144.801Z" fill="#096B13"/>
<path d="M161.282 135.744C161.741 136.191 163.881 136.655 163.881 136.655C163.881 136.655 163.359 134.524 162.89 134.077C162.668 133.873 162.375 133.763 162.073 133.772C161.772 133.781 161.486 133.907 161.275 134.124C161.065 134.341 160.948 134.631 160.948 134.934C160.947 135.236 161.065 135.527 161.275 135.744H161.282Z" fill="#096B13"/>
<path d="M160.068 141.113C160.641 141.401 162.819 141.203 162.819 141.203C162.819 141.203 161.684 139.328 161.112 139.039C160.837 138.901 160.518 138.877 160.226 138.974C159.934 139.07 159.693 139.279 159.554 139.555C159.416 139.83 159.392 140.149 159.489 140.442C159.585 140.735 159.794 140.977 160.068 141.116V141.113Z" fill="#096B13"/>
<path d="M159.603 146.5C160.118 146.883 162.298 147.054 162.298 147.054C162.298 147.054 161.496 145.013 160.98 144.633C160.732 144.464 160.429 144.398 160.134 144.449C159.839 144.499 159.575 144.662 159.397 144.904C159.219 145.145 159.141 145.446 159.179 145.743C159.218 146.041 159.369 146.312 159.603 146.5V146.5Z" fill="#096B13"/>
<path d="M159.422 149.23C159.422 149.23 162.234 148.666 162.982 147.913C163.73 147.161 167.105 145.847 167.481 146.786C167.858 147.725 172.543 150.919 169.355 151.482C166.166 152.046 161.857 152.228 160.931 151.858C160.004 151.487 159.422 149.23 159.422 149.23Z" fill="#A8A8A8"/>
<path opacity="0.2" d="M169.357 151.142C166.171 151.706 161.86 151.887 160.933 151.517C160.22 151.232 159.724 149.856 159.528 149.217L159.434 149.237C159.434 149.237 159.997 151.492 160.933 151.867C161.87 152.242 166.181 152.056 169.357 151.492C170.276 151.328 170.539 150.949 170.44 150.464C170.36 150.772 170.041 151.016 169.357 151.142Z" fill="black"/>
<path d="M206.043 166.903C206.043 166.903 214.573 165.192 216.85 162.912C219.127 160.632 229.362 156.641 230.499 159.492C231.637 162.343 245.861 172.035 236.198 173.746C226.535 175.457 213.449 176.026 210.604 174.886C207.76 173.746 206.043 166.903 206.043 166.903Z" fill="#A8A8A8"/>
<path opacity="0.2" d="M236.188 172.685C226.525 174.397 213.439 174.965 210.594 173.825C208.429 172.956 206.923 168.784 206.328 166.844L206.043 166.903C206.043 166.903 207.75 173.746 210.592 174.886C213.434 176.026 226.518 175.457 236.186 173.746C238.978 173.249 239.776 172.092 239.473 170.626C239.238 171.583 238.264 172.32 236.188 172.685Z" fill="black"/>
<path d="M263.781 118.308C263.75 119.329 263.431 120.32 262.862 121.167C262.289 120.323 261.965 119.334 261.928 118.313C261.928 116.736 262.334 115.457 262.847 115.455C263.36 115.452 263.776 116.731 263.781 118.308Z" fill="#096B13"/>
<path d="M193.841 116.923C193.806 117.943 193.485 118.933 192.914 119.779C192.343 118.933 192.022 117.943 191.987 116.923C191.987 115.345 192.401 114.066 192.914 114.066C193.427 114.066 193.841 115.345 193.841 116.923Z" fill="#096B13"/>
<path d="M270.067 145.067C270.638 145.913 270.959 146.903 270.994 147.923C270.035 147.576 269.195 146.965 268.568 146.16C267.641 144.883 267.228 143.604 267.641 143.304C268.055 143.003 269.143 143.793 270.067 145.067Z" fill="#096B13"/>
<path d="M240.469 130.113C240.435 131.134 240.114 132.124 239.543 132.969C238.972 132.124 238.65 131.134 238.616 130.113C238.616 128.536 239.03 127.257 239.543 127.257C240.056 127.257 240.469 128.541 240.469 130.113Z" fill="#096B13"/>
<path d="M223.156 120.626C223.122 121.646 222.8 122.636 222.229 123.482C221.658 122.636 221.337 121.646 221.303 120.626C221.303 119.049 221.716 117.769 222.229 117.769C222.742 117.769 223.156 119.049 223.156 120.626Z" fill="#096B13"/>
<path d="M212.415 126.41C212.892 127.313 213.104 128.332 213.027 129.351C212.109 128.903 211.336 128.204 210.798 127.334C210.015 125.966 209.742 124.649 210.186 124.393C210.629 124.138 211.635 125.042 212.415 126.41Z" fill="#096B13"/>
<path d="M204.39 152.647C203.624 153.321 202.684 153.763 201.677 153.924C201.902 152.928 202.403 152.017 203.122 151.294C204.269 150.216 205.486 149.645 205.835 150.017C206.184 150.39 205.538 151.569 204.39 152.647Z" fill="#096B13"/>
<path opacity="0.1" d="M204.39 152.647C203.624 153.321 202.684 153.763 201.677 153.924C201.902 152.928 202.403 152.017 203.122 151.294C204.269 150.216 205.486 149.645 205.835 150.017C206.184 150.39 205.538 151.569 204.39 152.647Z" fill="black"/>
<path d="M221.241 151.028C220.474 151.701 219.534 152.144 218.528 152.305C218.752 151.309 219.253 150.397 219.972 149.674C221.119 148.596 222.336 148.025 222.685 148.398C223.034 148.77 222.388 149.948 221.241 151.028Z" fill="#096B13"/>
<path opacity="0.1" d="M221.241 151.028C220.474 151.701 219.534 152.144 218.528 152.305C218.752 151.309 219.253 150.397 219.972 149.674C221.119 148.596 222.336 148.025 222.685 148.398C223.034 148.77 222.388 149.948 221.241 151.028Z" fill="black"/>
<path d="M224.471 168.15C223.705 168.824 222.765 169.266 221.758 169.427C221.983 168.428 222.484 167.514 223.205 166.789C224.352 165.711 225.569 165.14 225.918 165.513C226.268 165.885 225.621 167.07 224.471 168.15Z" fill="#096B13"/>
<path opacity="0.1" d="M224.471 168.15C223.705 168.824 222.765 169.266 221.758 169.427C221.983 168.428 222.484 167.514 223.205 166.789C224.352 165.711 225.569 165.14 225.918 165.513C226.268 165.885 225.621 167.07 224.471 168.15Z" fill="black"/>
<path d="M22.4149 140.778C26.2131 146.398 25.0016 166.521 25.0016 166.521C25.0016 166.521 5.91159 160.185 2.11341 154.567C0.289624 151.868 -0.389885 148.553 0.224372 145.352C0.838629 142.151 2.69633 139.325 5.38881 137.497C8.08129 135.669 11.388 134.988 14.5815 135.603C17.775 136.219 20.5936 138.081 22.4174 140.78L22.4149 140.778Z" fill="#096B13"/>
<path opacity="0.1" d="M22.4149 140.778C26.2131 146.398 25.0016 166.521 25.0016 166.521C25.0016 166.521 5.91159 160.185 2.11341 154.567C0.289624 151.868 -0.389885 148.553 0.224372 145.352C0.838629 142.151 2.69633 139.325 5.38881 137.497C8.08129 135.669 11.388 134.988 14.5815 135.603C17.775 136.219 20.5936 138.081 22.4174 140.78L22.4149 140.778Z" fill="black"/>
<path d="M5.46066 137.509C5.46066 137.509 19.7664 148.582 25.0759 166.541" stroke="#535461" stroke-miterlimit="10"/>
<path d="M28.6783 151.284C28.6783 151.284 18.5201 149.545 25.4574 166.412C25.4574 166.412 32.5161 163.714 33.0662 157.004C33.1753 155.698 32.8031 154.398 32.0201 153.348C31.237 152.299 30.0974 151.575 28.8171 151.311L28.6783 151.284Z" fill="#096B13"/>
<path d="M28.827 151.266C28.827 151.266 30.762 160.595 25.4673 166.417" stroke="#535461" stroke-miterlimit="10"/>
<path d="M249.899 166.936C249.899 166.936 254.138 166.091 255.268 164.966C256.398 163.841 261.487 161.872 262.052 163.277C262.617 164.683 269.683 169.467 264.879 170.309C260.075 171.15 253.573 171.434 252.161 170.872C250.749 170.311 249.899 166.936 249.899 166.936Z" fill="#A8A8A8"/>
<path opacity="0.2" d="M264.886 169.789C260.082 170.634 253.581 170.915 252.169 170.353C251.093 169.924 250.345 167.87 250.048 166.908L249.907 166.938C249.907 166.938 250.754 170.313 252.169 170.877C253.583 171.441 260.082 171.158 264.886 170.313C266.274 170.065 266.67 169.499 266.521 168.774C266.395 169.243 265.912 169.608 264.886 169.789Z" fill="black"/>
<path d="M232.883 112.959C246.872 112.959 258.212 101.591 258.212 87.5684C258.212 73.5457 246.872 62.1781 232.883 62.1781C218.894 62.1781 207.554 73.5457 207.554 87.5684C207.554 101.591 218.894 112.959 232.883 112.959Z" fill="#096B13"/>
<path d="M205.946 106.022C219.935 106.022 231.275 94.6542 231.275 80.6315C231.275 66.6089 219.935 55.2412 205.946 55.2412C191.958 55.2412 180.618 66.6089 180.618 80.6315C180.618 94.6542 191.958 106.022 205.946 106.022Z" fill="#096B13"/>
<path d="M176.294 106.27C190.283 106.27 201.623 94.9026 201.623 80.8799C201.623 66.8572 190.283 55.4896 176.294 55.4896C162.306 55.4896 150.966 66.8572 150.966 80.8799C150.966 94.9026 162.306 106.27 176.294 106.27Z" fill="#096B13"/>
<path d="M166.656 112.959C180.645 112.959 191.985 101.591 191.985 87.5684C191.985 73.5457 180.645 62.1781 166.656 62.1781C152.668 62.1781 141.328 73.5457 141.328 87.5684C141.328 101.591 152.668 112.959 166.656 112.959Z" fill="#096B13"/>
<path d="M150.346 115.189C164.335 115.189 175.675 103.821 175.675 89.7987C175.675 75.776 164.335 64.4084 150.346 64.4084C136.358 64.4084 125.018 75.776 125.018 89.7987C125.018 103.821 136.358 115.189 150.346 115.189Z" fill="#096B13"/>
<path d="M143.674 95.1236C157.663 95.1236 169.003 83.756 169.003 69.7333C169.003 55.7106 157.663 44.343 143.674 44.343C129.686 44.343 118.346 55.7106 118.346 69.7333C118.346 83.756 129.686 95.1236 143.674 95.1236Z" fill="#096B13"/>
<path d="M151.087 71.837C165.076 71.837 176.416 60.4693 176.416 46.4467C176.416 32.424 165.076 21.0564 151.087 21.0564C137.099 21.0564 125.759 32.424 125.759 46.4467C125.759 60.4693 137.099 71.837 151.087 71.837Z" fill="#096B13"/>
<path d="M165.172 71.837C179.161 71.837 190.501 60.4693 190.501 46.4467C190.501 32.424 179.161 21.0564 165.172 21.0564C151.184 21.0564 139.844 32.424 139.844 46.4467C139.844 60.4693 151.184 71.837 165.172 71.837Z" fill="#096B13"/>
<path d="M173.329 61.433C187.317 61.433 198.657 50.0653 198.657 36.0427C198.657 22.02 187.317 10.6524 173.329 10.6524C159.34 10.6524 148 22.02 148 36.0427C148 50.0653 159.34 61.433 173.329 61.433Z" fill="#096B13"/>
<path d="M194.086 72.8279C208.075 72.8279 219.415 61.4603 219.415 47.4376C219.415 33.4149 208.075 22.0473 194.086 22.0473C180.097 22.0473 168.757 33.4149 168.757 47.4376C168.757 61.4603 180.097 72.8279 194.086 72.8279Z" fill="#096B13"/>
<path d="M242.521 95.1236C256.509 95.1236 267.849 83.756 267.849 69.7333C267.849 55.7106 256.509 44.343 242.521 44.343C228.532 44.343 217.192 55.7106 217.192 69.7333C217.192 83.756 228.532 95.1236 242.521 95.1236Z" fill="#096B13"/>
<path d="M227.94 82.4893C241.929 82.4893 253.269 71.1217 253.269 57.099C253.269 43.0763 241.929 31.7087 227.94 31.7087C213.951 31.7087 202.611 43.0763 202.611 57.099C202.611 71.1217 213.951 82.4893 227.94 82.4893Z" fill="#096B13"/>
<path d="M218.55 69.855C232.539 69.855 243.879 58.4874 243.879 44.4647C243.879 30.442 232.539 19.0744 218.55 19.0744C204.561 19.0744 193.221 30.442 193.221 44.4647C193.221 58.4874 204.561 69.855 218.55 69.855Z" fill="#096B13"/>
<path d="M200.758 50.7806C214.747 50.7806 226.087 39.413 226.087 25.3903C226.087 11.3676 214.747 0 200.758 0C186.77 0 175.43 11.3676 175.43 25.3903C175.43 39.413 186.77 50.7806 200.758 50.7806Z" fill="#096B13"/>
<path d="M233.871 71.837C247.86 71.837 259.2 60.4693 259.2 46.4467C259.2 32.424 247.86 21.0564 233.871 21.0564C219.883 21.0564 208.543 32.424 208.543 46.4467C208.543 60.4693 219.883 71.837 233.871 71.837Z" fill="#096B13"/>
<path opacity="0.1" d="M258.1 50.423C258.1 50.423 234.511 39.2093 220.237 59.0834Z" fill="black"/>
<path opacity="0.1" d="M196.14 27.7051C196.14 27.7051 170.046 26.9153 164.922 50.8576Z" fill="black"/>
<path opacity="0.1" d="M163.703 79.653C163.703 79.653 140.114 68.4368 125.84 88.306Z" fill="black"/>
<path d="M60.4636 142.946C60.4636 142.946 61.8238 144.729 59.8343 147.417C57.8448 150.104 56.2046 152.384 56.8612 154.063C56.8612 154.063 59.8615 149.061 62.3119 148.991C64.7623 148.922 63.1493 145.954 60.4636 142.946Z" fill="#096B13"/>
<path opacity="0.1" d="M60.4636 142.946C60.582 143.118 60.6754 143.307 60.7411 143.505C63.1245 146.312 64.3956 148.932 62.1038 148.999C59.9705 149.061 57.4087 152.886 56.7967 153.852C56.8165 153.927 56.8405 154.001 56.8686 154.073C56.8686 154.073 59.869 149.071 62.3193 149.001C64.7697 148.932 63.1493 145.954 60.4636 142.946Z" fill="black"/>
<path d="M62.9932 145.221C62.9932 145.85 62.9238 146.359 62.8371 146.359C62.7504 146.359 62.681 145.862 62.681 145.221C62.681 144.58 62.7677 144.888 62.8545 144.888C62.9412 144.888 62.9932 144.593 62.9932 145.221Z" fill="#FFD037"/>
<path d="M63.8604 145.969C63.3104 146.269 62.8297 146.451 62.7901 146.374C62.7504 146.297 63.1617 145.991 63.7117 145.691C64.2618 145.39 64.0437 145.609 64.0858 145.691C64.128 145.773 64.4104 145.678 63.8604 145.969Z" fill="#FFD037"/>
<path d="M53.2735 142.946C53.2735 142.946 51.9133 144.729 53.9029 147.417C55.8924 150.104 57.5326 152.384 56.876 154.063C56.876 154.063 53.8756 149.061 51.4252 148.991C48.9749 148.922 50.5853 145.954 53.2735 142.946Z" fill="#096B13"/>
<path opacity="0.1" d="M53.2736 142.946C53.1552 143.118 53.0617 143.307 52.9961 143.505C50.6126 146.312 49.3416 148.932 51.6334 148.999C53.7666 149.061 56.3285 152.886 56.9404 153.852C56.9206 153.927 56.8966 154.001 56.8686 154.073C56.8686 154.073 53.8682 149.071 51.4178 149.001C48.9675 148.932 50.5854 145.954 53.2736 142.946Z" fill="black"/>
<path d="M50.7439 145.221C50.7439 145.85 50.8133 146.359 50.9 146.359C50.9867 146.359 51.0561 145.862 51.0561 145.221C51.0561 144.58 50.9694 144.888 50.8827 144.888C50.796 144.888 50.7439 144.593 50.7439 145.221Z" fill="#FFD037"/>
<path d="M49.8743 145.969C50.4243 146.269 50.905 146.451 50.9446 146.374C50.9842 146.297 50.573 145.991 50.0229 145.691C49.4729 145.39 49.6909 145.609 49.6488 145.691C49.6067 145.773 49.3341 145.678 49.8743 145.969Z" fill="#FFD037"/>
<path d="M51.1775 153.837C51.1775 153.837 54.9831 153.72 56.1327 152.901C57.2823 152.081 61.9873 151.105 62.2697 152.416C62.5522 153.728 67.9881 158.946 63.6919 158.981C59.3957 159.015 53.7096 158.31 52.5649 157.61C51.4203 156.909 51.1775 153.837 51.1775 153.837Z" fill="#A8A8A8"/>
<path opacity="0.2" d="M63.7662 158.526C59.47 158.561 53.7839 157.856 52.6393 157.155C51.7672 156.624 51.4203 154.714 51.3038 153.832H51.1775C51.1775 153.832 51.4253 156.909 52.5625 157.607C53.6997 158.305 59.3932 159.013 63.6894 158.978C64.9282 158.978 65.3568 158.526 65.3345 157.87C65.1636 158.27 64.6953 158.519 63.7662 158.526Z" fill="black"/>
<path d="M29.6223 178.398C30.0764 178.027 30.4073 177.526 30.5712 176.962C30.6951 176.391 30.4523 175.708 29.9072 175.499C29.2977 175.266 28.6461 175.688 28.1531 176.118C27.66 176.547 27.0927 177.034 26.446 176.942C26.7784 176.64 27.027 176.257 27.1677 175.83C27.3084 175.403 27.3363 174.947 27.2488 174.506C27.2208 174.323 27.1437 174.151 27.0258 174.009C26.6863 173.647 26.0744 173.803 25.668 174.089C24.3797 174.998 24.0204 176.751 24.013 178.331C23.8842 177.762 23.9932 177.168 23.9882 176.592C23.9833 176.016 23.8247 175.35 23.3341 175.047C23.0299 174.883 22.6883 174.802 22.3431 174.811C21.7633 174.789 21.1191 174.849 20.7227 175.273C20.2272 175.8 20.3585 176.687 20.7871 177.26C21.2158 177.834 21.8649 178.204 22.4645 178.606C22.945 178.893 23.3549 179.284 23.6636 179.751C23.7 179.816 23.7298 179.884 23.7528 179.955H27.3825C28.1958 179.54 28.9492 179.016 29.6223 178.398V178.398Z" fill="#096B13"/>
<path d="M255.085 181.875C255.539 181.504 255.87 181.003 256.034 180.439C256.158 179.868 255.915 179.185 255.37 178.976C254.76 178.743 254.109 179.165 253.616 179.595C253.123 180.025 252.555 180.511 251.909 180.419C252.241 180.117 252.49 179.734 252.63 179.307C252.771 178.88 252.799 178.424 252.711 177.983C252.683 177.8 252.606 177.628 252.488 177.486C252.149 177.124 251.537 177.28 251.131 177.566C249.842 178.475 249.483 180.228 249.476 181.808C249.347 181.239 249.456 180.645 249.451 180.069C249.446 179.493 249.287 178.827 248.797 178.524C248.492 178.361 248.151 178.279 247.806 178.288C247.226 178.266 246.582 178.326 246.185 178.75C245.69 179.277 245.821 180.164 246.25 180.737C246.678 181.311 247.327 181.681 247.927 182.083C248.408 182.37 248.817 182.761 249.126 183.228C249.162 183.293 249.192 183.361 249.215 183.432H252.845C253.658 183.017 254.412 182.493 255.085 181.875V181.875Z" fill="#096B13"/>
<path d="M170.63 180.529C170.63 180.529 170.383 184.418 170.878 185.064C170.878 185.064 159.501 187.138 158.079 186.489C156.657 185.841 157.303 184.806 158.079 184.416C158.854 184.026 162.734 182.6 163.25 179.88C163.25 179.88 161.57 179.103 166.998 180.129C172.427 181.155 170.63 180.529 170.63 180.529Z" fill="#DC9BA3"/>
<path opacity="0.05" d="M170.63 180.529C170.63 180.529 170.383 184.418 170.878 185.064C170.878 185.064 159.501 187.138 158.079 186.489C156.657 185.841 157.303 184.806 158.079 184.416C158.854 184.026 162.734 182.6 163.25 179.88C163.25 179.88 161.57 179.103 166.998 180.129C172.427 181.155 170.63 180.529 170.63 180.529Z" fill="black"/>
<path d="M214.977 142.812C214.977 142.812 213.555 145.144 214.459 149.682C215.364 154.219 212.133 154.217 212.133 154.217H205.671L203.474 148.505L206.576 148.753C206.576 148.753 208.644 148.234 207.74 143.438L214.977 142.812Z" fill="#FFD2D9"/>
<path d="M195.585 137.37C196.576 140.527 197.815 144.372 198.476 146.421L198.947 147.869L203.214 143.463C203.214 143.463 203.025 143.026 202.745 142.415C202.121 141.059 201.033 138.846 200.498 138.667C200.498 138.667 206.444 138.277 208.255 139.703C210.067 141.128 209.549 135.813 209.549 135.813C209.549 135.813 206.058 135.565 204.765 134.777C203.471 133.99 196.489 133.223 196.489 133.223C196.489 133.223 194.163 132.833 195.585 137.37Z" fill="#FFD2D9"/>
<path d="M156.796 175.482L157.7 182.091L160.026 181.843C160.026 181.843 160.168 181.708 160.405 181.495C161.032 180.941 162.338 179.856 163.587 179.26C164.009 179.043 164.468 178.906 164.939 178.855L162.353 174.965C161.724 175.202 161.079 175.394 160.423 175.539C159.741 175.7 159.044 175.783 158.344 175.787C157.812 175.795 157.285 175.691 156.796 175.482V175.482Z" fill="#FFD2D9"/>
<path d="M163.26 180.141C164.424 181.177 169.724 178.974 170.631 182.344L171.463 179.148L174.027 169.313L174.379 167.959L176.515 167.867L201.026 166.819L202.413 166.759L203.157 166.727L202.185 166.245L195.721 163.034C195.721 163.034 193.392 162.87 190.181 162.428C185.313 161.76 178.415 160.441 174.52 158.109C168.056 154.219 165.601 167.311 165.601 167.311C165.601 167.311 164.61 170.631 163.867 173.905C163.525 175.317 163.265 176.747 163.086 178.189C162.975 179.19 163.009 179.915 163.26 180.141Z" fill="#E9E9EF"/>
<path opacity="0.05" d="M163.26 180.141C164.424 181.177 169.724 178.974 170.63 182.344L171.463 179.148L174.027 169.313L174.379 167.959L176.582 167.822L200.263 166.362L201.724 166.27L202.175 166.243L202.758 166.206L195.711 163.029C195.711 163.029 193.382 162.865 190.171 162.423C185.303 161.755 178.405 160.436 174.51 158.104C168.046 154.215 165.591 167.306 165.591 167.306C165.591 167.306 164.6 170.626 163.857 173.9C163.515 175.312 163.255 176.742 163.076 178.184C162.975 179.19 163.009 179.915 163.26 180.141Z" fill="black"/>
<path opacity="0.1" d="M160.425 175.529L162.687 178.189L163.589 179.25C164.012 179.033 164.47 178.896 164.942 178.845L162.355 174.955C161.726 175.192 161.081 175.384 160.425 175.529V175.529Z" fill="black"/>
<path d="M160.547 175.216L163.076 178.197L164.295 179.63V180.02C165.782 180.365 170.437 179.381 171.463 179.155L171.664 179.111C174.637 179.24 185.627 172.76 185.627 172.76C185.627 172.76 197.651 174.834 203.466 174.315C206.714 174.024 207.626 172.847 207.797 171.861C207.872 171.374 207.805 170.875 207.604 170.425L202.401 166.762L201.712 166.265L200.612 165.488C200.612 165.488 198.699 165.053 196.271 164.517C192.476 163.677 187.419 162.587 186.396 162.51C184.716 162.381 180.449 163.806 177.991 166.658C177.57 167.103 177.094 167.492 176.574 167.817L176.507 167.862C175.816 168.322 174.966 168.808 174.03 169.308C170.901 170.959 166.728 172.735 163.859 173.9C161.897 174.702 160.547 175.216 160.547 175.216Z" fill="#E9E9EF"/>
<path opacity="0.1" d="M156.796 175.482L157.7 182.091L160.026 181.843C160.026 181.843 160.168 181.708 160.405 181.495C159.89 181.495 159.04 181.358 158.862 180.288C158.862 180.288 159.759 177.146 158.344 175.792C157.812 175.799 157.284 175.693 156.796 175.482Z" fill="black"/>
<path d="M158.597 180.27C158.597 180.27 159.89 175.735 156.917 175.216L152.004 177.161L146.305 177.551C146.305 177.551 144.819 179.982 147.2 182.709C147.854 183.449 148.652 184.048 149.543 184.47C150.435 184.893 151.402 185.13 152.388 185.168L158.597 185.454L160.547 181.443C160.547 181.443 158.864 181.825 158.597 180.27Z" fill="#DC9BA3"/>
<path opacity="0.1" d="M190.174 162.428C190.826 162.619 193.521 163.421 196.281 164.522C197.646 165.049 198.975 165.663 200.26 166.362C200.528 166.514 200.783 166.665 201.023 166.816C201.653 167.187 202.216 167.661 202.691 168.217C204.286 170.286 206.63 171.401 207.797 171.856C207.872 171.369 207.805 170.87 207.604 170.42L202.401 166.757L203.144 166.725L202.173 166.243L202.755 166.206L195.709 163.029C195.709 163.029 193.385 162.87 190.174 162.428Z" fill="black"/>
<path opacity="0.1" d="M198.486 146.423L198.957 147.871L203.223 143.465C203.223 143.465 203.035 143.028 202.755 142.417C202.203 143.557 199.628 145.559 198.486 146.423Z" fill="black"/>
<path d="M213.87 148.572C214.023 148.133 214.135 147.68 214.204 147.221L219.761 149.155C219.761 149.155 223.575 152.071 223.188 158.422C223.188 158.422 218.481 156.683 216.399 158.745L216.357 159.11C215.92 162.734 214.32 166.117 211.798 168.751C210.77 169.834 209.801 171.054 209.289 172.228C209.289 172.228 205.669 171.193 203.471 168.339C201.274 165.485 190.806 162.515 190.806 162.515C190.806 162.515 196.365 162.644 197.141 160.699C197.916 158.755 200.503 154.607 199.599 151.368C198.694 148.13 198.177 147.091 198.177 147.091C198.177 147.091 203.479 143.334 203.09 142.166L206.452 146.056L208.003 146.575C207.88 146.876 207.818 147.198 207.819 147.524C207.73 151.043 212.69 151.887 213.87 148.572Z" fill="#CEDAD5"/>
<path opacity="0.1" d="M207.933 145.164C207.894 144.68 207.829 144.198 207.738 143.721L214.977 143.073C214.977 143.073 214.482 143.507 214.259 145.127C213.409 145.624 212.418 146.314 211.357 146.314C210.122 146.315 208.919 145.912 207.933 145.164V145.164Z" fill="black"/>
<path d="M211.293 146.118C214.435 146.118 216.982 143.565 216.982 140.415C216.982 137.266 214.435 134.713 211.293 134.713C208.151 134.713 205.604 137.266 205.604 140.415C205.604 143.565 208.151 146.118 211.293 146.118Z" fill="#FFD2D9"/>
<path d="M215.495 141.906H214.72V139.703L213.944 137.37C213.944 137.37 210.064 135.555 208.246 135.945L206.833 137.234C206.833 137.234 206.444 134.124 208.773 132.957C211.102 131.79 215.237 132.309 216.273 133.205C217.309 134.102 218.998 135.669 217.695 139.946L217.316 140.999C217.316 140.999 215.753 140.48 215.495 141.906Z" fill="#844F6E"/>
<g opacity="0.05">
<path d="M205.446 144.898L205.022 144.757L203.07 142.499C203.108 142.392 203.112 142.276 203.082 142.166L205.446 144.898Z" fill="black"/>
<path d="M208.166 149.081C207.614 148.845 207.147 148.444 206.829 147.933C206.511 147.422 206.358 146.826 206.39 146.225C206.39 146.148 206.39 146.076 206.39 146.006L206.429 146.053L207.98 146.572C207.858 146.873 207.796 147.196 207.797 147.521C207.782 148.064 207.909 148.602 208.166 149.081V149.081Z" fill="black"/>
<path d="M193.085 162.408C196.326 163.538 200.714 165.319 202.049 167.05L202.148 167.174C198.598 164.733 190.801 162.512 190.801 162.512C191.564 162.521 192.326 162.486 193.085 162.408V162.408Z" fill="black"/>
<path d="M207.866 170.939C208.379 169.77 209.353 168.548 210.376 167.462C212.898 164.828 214.498 161.445 214.935 157.821L214.977 157.456C217.046 155.382 221.766 157.133 221.766 157.133C222.014 153.104 220.567 150.459 219.479 149.063L219.764 149.163C219.764 149.163 223.577 152.079 223.19 158.429C223.19 158.429 218.483 156.691 216.402 158.752L216.36 159.117C215.922 162.741 214.322 166.125 211.801 168.759C210.773 169.842 209.804 171.061 209.291 172.236C209.291 172.236 206.14 171.332 203.935 168.898C205.123 169.793 206.452 170.482 207.866 170.939V170.939Z" fill="black"/>
</g>
<path d="M209.289 155.774C209.289 155.774 215.483 164.715 218.726 167.308C221.969 169.901 222.864 166.141 222.864 166.141V157.848L217.165 157.2L217.103 157.987L217.034 158.886L211.732 153.174C211.732 153.174 206.43 148.378 205.396 151.229C204.363 154.08 209.289 155.774 209.289 155.774Z" fill="#FFD2D9"/>
<path opacity="0.1" d="M217.115 157.987C217.891 158.44 218.713 158.806 219.568 159.08C220.79 159.457 222.19 159.06 222.866 158.817V157.848L217.167 157.2L217.115 157.987Z" fill="black"/>
<path d="M222.93 157.006L223.262 158.394C223.262 158.394 221.241 159.338 219.561 158.822C218.428 158.437 217.346 157.915 216.34 157.267C216.092 157.138 217.373 155.712 217.373 155.712L222.93 157.006Z" fill="#CEDAD5"/>
<path opacity="0.1" d="M185.692 172.817C184.83 172.154 183.87 171.628 182.848 171.26C181.872 170.926 180.953 170.445 180.122 169.834" fill="black"/>
<path opacity="0.2" d="M146.323 177.548L146.533 177.533C146.226 178.316 145.79 180.228 147.604 182.317C148.257 183.054 149.051 183.651 149.939 184.073C150.828 184.495 151.792 184.733 152.774 184.773L158.795 185.056L158.602 185.454L152.388 185.168C151.406 185.128 150.441 184.89 149.553 184.468C148.664 184.046 147.87 183.449 147.217 182.712C144.836 179.98 146.323 177.548 146.323 177.548Z" fill="white"/>
<path opacity="0.05" d="M168.277 183.104C168.259 183.182 168.238 183.259 168.215 183.335C168.088 183.263 167.908 183.124 168.277 183.104Z" fill="#00FF00"/>
<path opacity="0.2" d="M158.101 186.102C159.427 186.706 169.392 184.947 170.737 184.704C170.764 184.833 170.816 184.955 170.891 185.064C170.891 185.064 159.513 187.138 158.091 186.489C157.348 186.157 157.177 185.72 157.276 185.322C157.358 185.6 157.591 185.876 158.101 186.102Z" fill="white"/>
<path opacity="0.1" d="M207.678 137.691C206.28 136.843 205.144 135.622 204.398 134.164C204.293 134.003 204.25 133.81 204.276 133.62C204.368 133.267 204.826 133.205 205.158 133.054C205.775 132.771 206.036 132.06 206.439 131.509C206.786 131.055 207.251 130.707 207.783 130.502C208.316 130.297 208.894 130.244 209.455 130.349C210.044 130.468 210.589 130.761 211.189 130.846C212.472 131.035 213.87 130.255 215.022 130.846C215.547 131.117 215.904 131.626 216.216 132.127C217.001 133.387 217.985 134.725 217.271 136.196C216.863 137.04 216.209 137.74 215.289 137.986C214.37 138.232 213.307 138.026 212.371 137.927C211.603 137.842 210.795 137.678 210.022 137.748C209.11 137.842 208.543 138.212 207.678 137.691Z" fill="black"/>
<path d="M207.678 137.43C206.28 136.582 205.144 135.361 204.398 133.903C204.293 133.743 204.25 133.549 204.276 133.359C204.368 133.007 204.826 132.945 205.158 132.793C205.775 132.51 206.036 131.8 206.439 131.248C206.786 130.794 207.251 130.446 207.783 130.241C208.316 130.036 208.894 129.983 209.455 130.088C210.044 130.208 210.589 130.501 211.189 130.585C212.472 130.774 213.87 129.994 215.022 130.585C215.547 130.856 215.904 131.365 216.216 131.867C217.001 133.126 217.985 134.465 217.271 135.935C216.863 136.779 216.209 137.48 215.289 137.726C214.37 137.971 213.307 137.765 212.371 137.666C211.603 137.581 210.795 137.418 210.022 137.487C209.11 137.582 208.543 137.954 207.678 137.43Z" fill="#844F6E"/>
<path d="M101.101 168.307C101.101 170.979 101.25 172.745 101.25 172.745C101.25 172.745 105.058 172.959 104.952 176.498C104.845 180.037 119.753 180.787 119.753 180.787C119.753 180.787 119.753 180.75 119.753 180.68C119.753 180.68 119.753 180.395 119.753 179.878C121.17 180.089 122.686 180.26 123.536 180.179C123.479 180.454 123.412 180.745 123.348 181.003C123.278 181.073 121.906 182.463 121.95 183.944C121.926 184.689 122.263 185.454 123.353 186.09C126.499 187.932 136.298 186.907 136.298 186.907C137.785 185.928 138.28 185.096 138.253 184.406C138.3 183.387 137.287 182.667 136.358 182.203C135.639 181.844 134.816 181.756 134.039 181.954C132.989 182.187 131.912 182.267 130.84 182.19C130.882 181.977 130.937 181.766 131.006 181.559C132.012 181.845 132.706 182.056 132.706 182.056C132.706 182.056 137.929 179.269 135.753 174.767C135.41 174.142 134.894 173.63 134.267 173.294C135.944 170.395 137.537 166.983 137.378 164.688C137.113 160.858 129.527 161.693 126.685 162.142L121.207 156.755C121.207 152.781 121.329 148.219 120.959 147.23C120.305 145.514 120.523 145.74 120.09 144.98L120.072 144.953C119.825 144.551 119.151 143.912 118.977 143.999C118.903 143.21 118.914 142.415 119.009 141.627C120.358 141.185 121.533 140.329 122.368 139.18C123.203 138.03 123.656 136.646 123.662 135.225C123.663 134.16 123.408 133.112 122.919 132.167L122.993 132.135L122.275 128.593C122.249 128.518 122.239 128.439 122.244 128.36C122.25 128.281 122.271 128.204 122.307 128.134C122.382 128.034 122.508 128.005 122.604 127.935C122.714 127.829 122.785 127.689 122.806 127.538C122.827 127.387 122.797 127.233 122.721 127.101C122.654 126.969 122.562 126.852 122.451 126.755C121.846 126.067 120.56 126.313 119.77 126.211C118.7 126.075 117.577 125.876 116.564 126.408C116.346 126.543 116.118 126.663 115.883 126.765C115.56 126.853 115.225 126.885 114.892 126.86C114.288 126.859 113.686 126.913 113.093 127.021C112.32 126.74 111.411 126.989 110.695 127.418C109.875 127.921 109.208 128.638 108.765 129.492C108.321 130.346 108.118 131.305 108.177 132.267C108.24 132.867 108.355 133.462 108.522 134.042L109.847 139.221C109.932 139.653 110.1 140.065 110.343 140.433C110.401 140.511 110.468 140.582 110.541 140.646C110.667 140.799 110.831 140.916 111.016 140.987C111.201 141.057 111.401 141.079 111.596 141.049C111.647 141.037 111.696 141.019 111.743 140.997C111.698 141.541 111.592 142.08 111.428 142.601C109.912 143.043 107.712 144.588 105.07 149.058C101.681 154.786 101.116 163.23 101.101 168.307Z" fill="url(#paint0_linear_222_3472)"/>
<path d="M114.28 175.755H129.106V165.11H114.28V175.755Z" fill="#5F5D7E"/>
<path d="M125.426 162.791C125.426 162.791 136.467 160.471 136.781 165.11C137.096 169.75 130.263 179.019 130.263 179.019L124.069 177.754L125.855 170.587C125.855 170.587 118.811 169.005 118.39 168.9C117.969 168.796 125.426 162.791 125.426 162.791Z" fill="#5F5D7E"/>
<path opacity="0.1" d="M125.426 162.791C125.426 162.791 136.467 160.471 136.781 165.11C137.096 169.75 130.263 179.019 130.263 179.019L124.069 177.754L125.855 170.587C125.855 170.587 118.811 169.005 118.39 168.9C117.969 168.796 125.426 162.791 125.426 162.791Z" fill="black"/>
<path d="M131.212 180.288C131.212 180.288 130.161 182.29 130.468 183.134C130.776 183.978 123.003 181.974 123.003 181.974C123.003 181.974 123.635 179.55 123.529 179.242C123.422 178.934 131.212 180.288 131.212 180.288Z" fill="#5F5D7E"/>
<path d="M124.376 166.586L125.149 167.286L125.645 167.738C125.645 167.738 128.169 171.848 131.427 169.32C134.685 166.792 128.898 164.899 127.741 164.802C127.509 164.768 127.288 164.678 127.098 164.54C126.909 164.402 126.755 164.22 126.65 164.01C126.473 163.7 126.344 163.365 126.269 163.017L124.376 166.586Z" fill="#FDC2CC"/>
<path opacity="0.05" d="M124.376 166.586L125.149 167.286L125.645 167.738C125.645 167.738 128.169 171.848 131.427 169.32C134.685 166.792 128.898 164.899 127.741 164.802C127.509 164.768 127.288 164.678 127.098 164.54C126.909 164.402 126.755 164.22 126.65 164.01C126.473 163.7 126.344 163.365 126.269 163.017L124.376 166.586Z" fill="black"/>
<path opacity="0.1" d="M131.212 180.288C131.212 180.288 130.161 182.29 130.468 183.134C130.776 183.978 123.003 181.974 123.003 181.974C123.003 181.974 123.635 179.55 123.529 179.242C123.422 178.934 131.212 180.288 131.212 180.288Z" fill="black"/>
<path opacity="0.1" d="M124.376 166.586L125.149 167.286C125.149 165.935 126.043 164.693 126.655 163.995C126.478 163.686 126.349 163.35 126.274 163.002L124.376 166.586Z" fill="black"/>
<path d="M119.75 155.941L127.005 163.213C127.005 163.213 124.48 165.426 125.008 167.745L119.75 161.842V155.941Z" fill="#C4C8E2"/>
<path opacity="0.1" d="M119.802 155.941V161.844L120.645 162.791L123.145 165.597L125.06 167.748C124.535 165.428 127.057 163.215 127.057 163.215L119.802 155.941Z" fill="black"/>
<path d="M119.75 145.504C119.75 145.504 119.75 147.717 117.857 147.086C115.965 146.456 117.436 172.067 117.436 172.067C117.436 172.067 122.904 167.957 121.851 165.006C120.798 162.055 120.59 159.835 120.689 156.889C120.788 153.944 119.75 145.504 119.75 145.504Z" fill="#D39999"/>
<path d="M119.644 139.603C119.644 139.603 118.066 143.925 119.644 147.193C121.222 150.462 110.283 145.4 110.283 145.4C110.283 145.4 112.702 144.24 111.862 138.654L119.644 139.603Z" fill="#FDC2CC"/>
<path opacity="0.1" d="M120.59 159.313C120.526 160.472 120.526 161.632 120.59 162.791L123.09 165.597C122.724 164.813 122.31 164.053 121.851 163.32C121.462 162.716 121.376 160.309 121.356 157.562L120.439 156.643C120.536 158.126 120.59 159.313 120.59 159.313Z" fill="black"/>
<path d="M118.955 144.933C118.839 144.379 119.75 145.214 120.043 145.698L120.058 145.725C120.479 146.47 120.268 146.252 120.9 147.938C121.532 149.625 120.689 161.847 121.643 163.337C122.287 164.381 122.85 165.474 123.325 166.605L121.643 165.972C121.643 165.972 121.011 164.075 120.593 163.652C120.174 163.23 120.382 159.331 120.382 159.331C120.382 159.331 120.067 152.585 119.75 151.11C119.5 149.923 119.203 146.098 118.955 144.933Z" fill="#C4C8E2"/>
<path opacity="0.1" d="M118.955 144.933C118.839 144.379 119.75 145.214 120.043 145.698L120.058 145.725C120.479 146.47 120.268 146.252 120.9 147.938C121.532 149.625 120.689 161.847 121.643 163.337C122.287 164.381 122.85 165.474 123.325 166.605L121.643 165.972C121.643 165.972 121.011 164.075 120.593 163.652C120.174 163.23 120.382 159.331 120.382 159.331C120.382 159.331 120.067 152.585 119.75 151.11C119.5 149.923 119.203 146.098 118.955 144.933Z" fill="black"/>
<path d="M116.49 171.222C116.49 171.222 133.102 170.589 135.206 175.017C137.309 179.446 132.262 182.188 132.262 182.188C132.262 182.188 125.218 179.975 123.64 180.29C122.062 180.606 116.49 179.446 116.49 179.446V171.222Z" fill="#5F5D7E"/>
<path d="M125.744 168.483C125.744 168.483 129.529 166.374 131.633 167.738C133.736 169.101 133.526 172.797 130.582 172.901C127.639 173.006 126.061 171.215 126.061 171.215L125.744 168.483Z" fill="#FDC2CC"/>
<path d="M113.861 143.503C113.861 143.503 110.496 141.183 105.554 149.712C100.611 158.24 101.874 172.899 101.874 172.899C101.874 172.899 105.554 173.11 105.45 176.587C105.345 180.064 119.75 180.809 119.75 180.809C119.75 180.809 119.54 146.237 118.068 145.293C116.596 144.349 113.861 143.503 113.861 143.503Z" fill="#C4C8E2"/>
<path opacity="0.1" d="M113.846 149.791C114.44 150.22 114.923 150.784 115.255 151.437C115.588 152.09 115.76 152.813 115.759 153.546C115.776 156.703 115.853 163.506 116.173 164.792C116.594 166.479 122.902 168.692 126.162 168.587C126.162 168.587 127.741 171.538 125.848 172.171C123.955 172.805 112.389 172.171 112.389 172.171C112.389 172.171 107.868 167.008 107.764 162.485C107.66 157.962 107.02 152.893 107.764 151.944C108.371 151.142 110.91 147.715 113.846 149.791Z" fill="black"/>
<path d="M114.057 149.369C114.653 149.797 115.139 150.361 115.474 151.015C115.809 151.669 115.983 152.394 115.982 153.129C115.999 156.286 116.076 163.089 116.396 164.375C116.817 166.061 123.125 168.274 126.385 168.17C126.385 168.17 127.964 171.121 126.071 171.754C124.178 172.387 112.612 171.754 112.612 171.754C112.612 171.754 108.091 166.59 107.987 162.068C107.883 157.545 107.243 152.476 107.987 151.527C108.581 150.73 111.121 147.293 114.057 149.369Z" fill="#C4C8E2"/>
<path d="M135.79 182.314C137.299 183.06 139.048 184.594 135.733 186.927C135.733 186.927 126.271 187.98 123.221 186.082C120.171 184.185 123.221 181.127 123.221 181.127C123.221 181.127 130.201 182.988 133.551 182.078C134.301 181.881 135.098 181.964 135.79 182.314Z" fill="#4C4C56"/>
<path opacity="0.1" d="M135.79 182.528C137.299 183.248 139.048 184.709 135.733 186.941C135.733 186.941 126.271 187.95 123.221 186.134C120.171 184.319 123.221 181.396 123.221 181.396C123.221 181.396 130.201 183.174 133.551 182.307C134.3 182.116 135.092 182.194 135.79 182.528Z" fill="black"/>
<path opacity="0.1" d="M114.334 157.257C114.334 157.257 114.86 163.898 118.331 165.374Z" fill="black"/>
<path opacity="0.1" d="M119.54 140.341C119.233 141.255 119.024 142.199 118.918 143.157C118.254 143.381 117.283 142.82 116.542 142.82C114.614 142.82 114.064 140.659 112.863 139.342C112.863 138.756 111.872 140.125 111.758 139.395L119.54 140.341Z" fill="black"/>
<path d="M110.283 136.124C110.283 136.675 110.35 137.223 110.484 137.758L110.506 137.842C110.94 139.48 111.98 140.892 113.414 141.79C114.848 142.688 116.569 143.005 118.228 142.677C119.886 142.35 121.359 141.402 122.346 140.025C123.333 138.649 123.761 136.948 123.542 135.268C123.324 133.587 122.476 132.053 121.17 130.976C119.864 129.899 118.199 129.361 116.512 129.47C114.824 129.579 113.242 130.328 112.085 131.564C110.928 132.8 110.284 134.431 110.283 136.126V136.124Z" fill="#FDC2CC"/>
<path opacity="0.1" d="M105.556 149.826C106.243 148.613 107.029 147.46 107.907 146.379C107.201 147.309 106.556 148.285 105.977 149.299C101.034 157.838 102.298 172.487 102.298 172.487C102.298 172.487 105.977 172.698 105.873 176.175C105.779 179.297 117.372 180.211 119.748 180.365C119.748 180.722 119.748 180.916 119.748 180.916C119.748 180.916 105.343 180.171 105.447 176.694C105.551 173.217 101.872 173.006 101.872 173.006C101.872 173.006 100.621 158.365 105.556 149.826Z" fill="black"/>
<path opacity="0.1" d="M111.123 128.541C111.817 128.121 112.694 127.875 113.442 128.151C114.014 128.045 114.595 127.992 115.177 127.992C115.495 128.016 115.815 127.985 116.123 127.9C116.351 127.8 116.571 127.683 116.782 127.55C117.761 127.029 118.846 127.225 119.879 127.359C120.719 127.468 122.139 127.163 122.624 128.126C122.698 128.256 122.727 128.407 122.706 128.555C122.686 128.703 122.618 128.84 122.513 128.946C122.419 129.015 122.297 129.043 122.225 129.142C122.191 129.212 122.17 129.287 122.164 129.365C122.159 129.442 122.169 129.52 122.193 129.594L122.887 133.071C122.568 133.227 122.22 133.316 121.865 133.332C121.51 133.348 121.155 133.292 120.823 133.166C120.637 133.092 120.455 133.009 120.278 132.917C119.76 133.255 119.225 132.999 118.598 133.133C118.228 133.24 117.898 133.456 117.652 133.754C116.923 134.533 116.435 135.507 116.247 136.558C116.178 136.953 116.086 137.44 115.704 137.552C115.56 137.58 115.413 137.595 115.266 137.596C114.577 137.686 114.295 138.503 113.851 139.042C113.311 139.698 112.342 140.125 112.283 140.974C112.268 141.193 112.315 141.434 112.194 141.617C112.112 141.727 111.991 141.802 111.857 141.826C111.644 141.856 111.428 141.825 111.233 141.737C111.037 141.65 110.87 141.508 110.752 141.329C110.521 140.967 110.362 140.563 110.283 140.14L109.002 135.048C108.841 134.479 108.729 133.898 108.668 133.31C108.61 132.367 108.808 131.426 109.241 130.586C109.673 129.747 110.323 129.04 111.123 128.541V128.541Z" fill="black"/>
<path d="M111.027 128.447C111.72 128.027 112.597 127.781 113.346 128.057C113.918 127.951 114.498 127.897 115.08 127.898C115.398 127.922 115.719 127.891 116.026 127.806C116.254 127.705 116.475 127.588 116.685 127.456C117.664 126.934 118.749 127.13 119.783 127.264C120.622 127.374 122.042 127.068 122.528 128.032C122.601 128.162 122.63 128.313 122.61 128.461C122.59 128.609 122.522 128.746 122.416 128.852C122.322 128.921 122.201 128.948 122.129 129.048C122.094 129.117 122.073 129.193 122.068 129.271C122.062 129.348 122.072 129.426 122.097 129.5L122.79 132.977C122.471 133.133 122.123 133.222 121.768 133.238C121.413 133.254 121.059 133.197 120.726 133.071C120.541 132.998 120.359 132.915 120.181 132.823C119.664 133.161 119.128 132.905 118.502 133.039C118.131 133.146 117.801 133.362 117.555 133.66C116.826 134.439 116.338 135.413 116.15 136.464C116.081 136.859 115.989 137.346 115.608 137.457C115.463 137.485 115.316 137.5 115.169 137.502C114.48 137.591 114.198 138.409 113.754 138.948C113.214 139.603 112.246 140.03 112.186 140.88C112.171 141.098 112.218 141.339 112.097 141.523C112.015 141.633 111.895 141.707 111.76 141.732C111.548 141.762 111.332 141.731 111.136 141.643C110.941 141.555 110.774 141.414 110.655 141.235C110.424 140.872 110.265 140.468 110.187 140.045L108.906 134.954C108.745 134.385 108.633 133.803 108.571 133.215C108.514 132.272 108.712 131.331 109.144 130.492C109.576 129.653 110.227 128.946 111.027 128.447Z" fill="#865A61"/>
</g>
<defs>
<linearGradient id="paint0_linear_222_3472" x1="138.251" y1="156.626" x2="101.101" y2="156.626" gradientUnits="userSpaceOnUse">
<stop stop-color="#808080" stop-opacity="0.25"/>
<stop offset="0.54" stop-color="#808080" stop-opacity="0.12"/>
<stop offset="1" stop-color="#808080" stop-opacity="0.1"/>
</linearGradient>
<clipPath id="clip0_222_3472">
<rect width="283" height="194" fill="white"/>
</clipPath>
</defs>
</svg>
