<?xml version="1.0" encoding="UTF-8"?>
<svg id="Layer_1" data-name="Layer 1" xmlns="http://www.w3.org/2000/svg" viewBox="0 0 800 800">
  <defs>
    <style>
      .cls-1 {
        fill: none;
      }

      .cls-2 {
        fill: #487bff;
      }
    </style>
  </defs>
  <g id="Layer_2" data-name="Layer 2">
    <g id="invisible_box" data-name="invisible box">
      <rect class="cls-1" width="800" height="800"/>
    </g>
    <g id="icons_Q2" data-name="icons Q2">
      <path class="cls-2" d="m400,33.33c-202.5,0-366.67,164.16-366.67,366.67s164.16,366.67,366.67,366.67,366.67-164.16,366.67-366.67c.92-201.58-161.74-365.74-363.33-366.67-1.11,0-2.23,0-3.34,0Zm0,133.33c73.64,0,133.33,59.7,133.33,133.33s-59.7,133.33-133.33,133.33-133.33-59.7-133.33-133.33,59.7-133.33,133.33-133.33Zm0,533.33c-75.36-.48-147.85-29-203.33-80,62.47-33.95,132.24-52.25,203.33-53.33,71.09,1.09,140.86,19.39,203.33,53.33-55.49,51-127.97,79.52-203.33,80Z"/>
    </g>
  </g>
</svg>